<?xml version="1.0" encoding="utf-8"?>
<!-- Generator: Adobe Illustrator 16.0.0, SVG Export Plug-In . SVG Version: 6.00 Build 0)  -->
<!DOCTYPE svg PUBLIC "-//W3C//DTD SVG 1.1//EN" "http://www.w3.org/Graphics/SVG/1.1/DTD/svg11.dtd">
<svg version="1.1" id="Layer_1" xmlns="http://www.w3.org/2000/svg" xmlns:xlink="http://www.w3.org/1999/xlink" x="0px" y="0px"
	 width="800px" height="800px" viewBox="0 0 800 800" style="enable-background:new 0 0 800 800;" xml:space="preserve">
<style type="text/css">
<![CDATA[
	.st0{fill:#103754;}
	.st1{fill:#E6E7E8;}
	.st2{fill:#E8CEAB;}
	.st3{opacity:0.15;}
	.st4{fill:#58595B;}
	.st5{fill:#BF864F;}
	.st6{fill:#929292;}
	.st7{fill:#969A9D;}
	.st8{fill:#999999;}
	.st9{fill:#FFCE89;}
	.st10{fill:#FFFFFF;}
	.st11{fill:#6D8B95;}
	.st12{fill:#0E303F;}
	.st13{fill:#424244;}
]]>
</style>
<g id="background">
	<rect id="background_1_" class="st13" width="800" height="800"/>
	<g id="wood_table">
		<rect y="382.8" class="st2" width="800" height="417.2"/>
		<g class="st3">
			<g>
				<path class="st5" d="M0,605.5c0,0,71.5,0,172.2,0c3.2,0,6.5,0,9.8,0c50.9,0,101.6,0,151.5,0c3.8,0,7.7,0,11.5,0
					c49.8,0,100.6,0,149.4,0c4,0,8,0,12,0c34.2,0,69.5,0,104.9,0c5.1,0,10.1,0,15.2,0c4.8,0,9.6,0,14.4,0c4.9,0,9.9,0,14.9,0
					c10.5,0,18.9,0,29.4,0c4.9,0,9.8,0,14.6,0s9.5,0,14.2,0c3.2,0,6.4,0,9.5,0c43.1,0,74.7,0,74.7,0v4.1c0,0-35.5,0-84.2,0
					c-3.2,0-6.6,0-9.9,0c-20.8,0-43.3,0-62.3,0c-5.1,0-10.1,0-15.2,0c-40.5,0-81,0-120.1,0c-3.9,0-7.9,0-12,0
					c-48.8,0-99.6,0-149.4,0c-3.8,0-7.7,0-11.5,0c-49.9,0-100.6,0-151.5,0c-3.3,0-6.6,0-9.8,0c-100.7,0-172.2,0-172.2,0v-4.1H0z"/>
				<path class="st5" d="M0,594.8c0,0,75.4,0,182.1,0c3.3,0,6.7,0,10.1,0c44.1,0,86.6,1,131.1,0c3.8,0,7.7,0,11.6,0
					c26.9,0,54.2,0,81.4,0c4.5,0,9.1,0,13.6,0c16.3,0,36.2,0,53.9,0c4.4,0,8.9,0,13.3,0c4.1,0,8.1,0,12.1,0
					c31.1,0,63.4,0.5,95.5,0.5c4.6,0,9.2,0.3,13.7,0.3c29.2,0,54.8,0.1,84.1,0c4.3,0.1,8.9,0.1,13.5,0.1s9.2-0.5,13.8-0.5
					c3.5,0,6.9-0.4,10.1-0.4c36.2,0,58.3,0,58.3,0v2.1c0,0-19.8,0-52.8,0c-5.5,0-11.4,0-17.6,0c-4,0-8,0-12.1,0c-4.1,0-8.1,0-12.2,0
					c-24.7,0-47.4,0.5-73.3,0.6c-5.2,0-10.3-0.3-15.4-0.3c-35.7,0-71.3-0.3-105.7-0.3c-4,0-8,0-12.1,0c-9.8,0-19.7,0-29.7,0
					s-20,0-30.1,0c-10.1,0-20.2,0-30.3,0c-20.2,0-40.5,0-60.5,0c-3.9,0-7.7,0-11.6,0c-50.3,2.1-101.4,2.1-152.7,0
					c-3.3,0-6.6,0-9.9,0c-101.5,0-172.1,0-172.1,0v-2.1H0z"/>
				<path class="st5" d="M0,583.3c0,0,46,0,118.4,0c3.5,0,7.3,0.6,11.2,0.6c13.1-0.1,30.1-0.3,44.8-0.4c3.6,0,7.6-0.2,11.6-0.2
					s8.1,0,12.2,0c3.5,0,7,0,10.5,0c36.1,0,75.8,0,112.2,0c3.9,0,7.8,0,11.7,0c14.7,0,29.4,0,44.3,0c4.9,0,9.9,0,14.8,0
					c40.3,2.1,77.2,1,117.4,0c4,0,8,0,12,0c24.9,0,50.2,0,75.5,0c5.1,0,10.4,0.7,15.9,0.9c37.9,3.8,71.9-3.8,110-1
					c4.3,0.2,8.8,0,13.3,0c4.6,0,9.1,0,13.6,0c6.1,0,11.7,0,16.7,0c20.2,0,32,0,32,0v4.1c0,0-18.2,0-48.7,0c-3,0-6.2,0-9.4,0
					c-4.1,0-8.3,0-12.5,0c-37.4-1-77.1,0-115.3,0.2c-5.4-0.1-10.5-0.2-15.6-0.2c-25.4,0-50.6,0-75.5,0c-4,0-8,0-12,0
					c-34.6,0-68.6,0-102.5,0c-5,0-9.9,0-14.9,0c-19.8,0-39.6,0-59.1,0c-3.9,0-7.8,0-11.7,0c-36.4,0-76.1,0-112.2,0
					c-3.5,0-7,0-10.5,0c-114.9,0-198.2,0-198.2,0V583.3L0,583.3z"/>
				<path class="st5" d="M0,571.8c0,0,34,0,90.6,0c3.3,0,6.7,0,10.2,0c30.4,0,64.5,0,95,0c4.4,0,8.8,0,13.2,0c4.5,0,9,0,13.5,0
					c3.4,0,6.9,0,10.4,0c23.2,0,43,0,64.4,0c3.7,0,7.3,0,11,0c20,0,40.4,0,60.8,0c5.1,0,10.2,0,15.3,0c44.6,2.1,89.9,0,136.5,0
					c4,0,7.9,0,11.9,0c13.6,0,27.1,0,40.5,0c6.7,0,13.4,0,20.1,0c3.8,0,7.8,0.6,11.9,0.8c42.1,3.8,87.4-4.3,129.8-0.1
					c4.8,0,9.7-0.4,14.5-0.4c6.1,0,11.6-0.3,16.6-0.3c20.1,0,31.8,0,31.8,0v2.1c0,0-11.8,0-32,0c-5.1,0-10.6,0-16.7,0
					c-4.5,0-9,0-13.5,0c-43-2.1-88.4,3.1-132.4,0.2c-4.1-0.2-8-0.2-11.9-0.2c-19.6,0-39.3,0-58.7,0c-3.9,0-7.9,0-11.9,0
					c-40.9,2.1-80.6,2.1-121,0.1c-5.3-0.1-10.4-0.1-15.5-0.1c-25.6,0-51.1,0-76.2,0c-3.7,0-7.4,0-11.1,0c-27,0-55.4,0-85,0
					c-3.4,0-6.8,0-10.1,0c-31.2,0-59.6,0-91.6,0c-3.4,0-6.7,0-10,0c-62.4,0-100.6,0-100.6,0v-2.1H0z"/>
				<path class="st5" d="M0,559.7c0,0,27.4,0,74.9,0c5.3,0,10.8,0,17.2,0.4c39.2,3.8,81.7-2.5,121.4-0.4c3.8,0,7.7,0,11.6,0
					c42.7,0,88.7,0,135.4,0c4.1,0,8.3,0.5,12.5,0.5c47.7,2.1,98.7,2.9,148.2-0.2c4,0,7.9-0.3,11.9-0.3c17.6,0,35.2,0,52.6,0
					c3.5,0,7,0.5,10.5,0.7c45.7,4,91.1-4.1,136.9-0.2c4.5,0.2,9.1-0.2,13.6-0.2c4,0,7.9-0.3,11.5-0.3c25.2,0,40,0,40,0v2.1
					c0,0-17,0-45.6,0c-3.2,0-6.5,0.5-10,0.4c-46.8-3-97.9,3-146.5,0c-3.5-0.1-7.1-0.4-10.6-0.4c-17.6,0-35.2,0-52.5,0
					c-3.9,0-7.9,0.5-11.9,0.5c-46.6,2.1-89.1,2.9-135.6-0.2c-4.2,0-8.4-0.3-12.5-0.3c-51.8,0-103.1,0-150.2,0c-3.6,0-7.2,0-10.8,0
					c-43.7-3.1-89.1,2.1-131,0c-5.1,0-10,0-14.7,0c-42.4,0-66.2,0-66.2,0v-2.1H0z"/>
				<path class="st5" d="M0,519.4c0,0,34.4-0.8,75.9,0c5.3,0.1,17.1,1.4,23.2,1.8c42,3.2,72.1-5.9,114.9-2.3c3.6,0.3,7.1,0.6,11,0.6
					c42.7,0,88.7,0,135.4,0c4.1,0,8.3-0.1,12.5-0.1c50.5,2.1,85.5,5.9,134.9,1.8c7.8-1.3,21.2-1.8,25.3-1.7c17.1,0,34.2,0,51.2,0
					c3.4,0,6.8,0,10.2,0c44.5,4.1,92.7-3.2,138.5-0.2c4.7,0.2,9.2,0.2,13.7,0.2c4,0,7.8,0,11.4,0c3.6,0,7,0,10.1,0
					c18.9,0,29.9,0,29.9,0v4.1c0,0-14.9,0-40,0c-3.6,0-7.4,0-11.4,0c-4.5,0-9.1-0.1-13.7-0.3c-45.8-4-91.2,4.4-137,0.4
					c-3.5-0.1-6.9-0.1-10.4-0.1c-17.5,0-35,0-52.6,0c-3.9,0-7.9-0.1-11.9,0c-52.3,3.1-97.7,2.1-148.2,0c-4.2,0-8.3,0-12.5,0
					c-46.7,0-92.7,0-135.4,0c-3.9,0-7.7-0.1-11.3-0.3c-40-2.9-82.5,3.4-121.5,0.9c-6.3-0.4-11-0.5-16.3-0.6c-45.8-1.6-75.9,0-75.9,0
					V519.4L0,519.4z"/>
				<path class="st5" d="M0,533.3c0,0,23.8,0,66.2,0c4.7,0,9.6,0.8,14.6,1.1c8,1.8,17.2,1.9,25.7,1.9c42.5,1,53.2-5.1,127.2-3
					c3.7,0,7.4,0,11.1,0c40.9,0,84.4,0,128.2,0c4.2,0,8.3,0.8,12.5,0.8c34.9,2.3,67.5,2.7,101.3,1.7c6.8-0.2,13.6-0.2,20.4-0.5
					c30.9-1,62-1.1,93.1-1c4.4,0,8.9,0.1,13,0.3c34.2,0.3,71.1,0.3,105.5,0.2c5.5,0.2,10.5,0.2,15.5,0.2c4.9,0,9.9-0.9,14.8-1
					c10.1,0.1,19-0.7,26.2-0.7c14.5,0,22.9,0,22.9,0v4.1c0,0-8.4,0-22.9,0c-7.3,0-16.1,0-26.4,0c-5.4,0-10.8,0-16.3,0
					c-42.6-4.1-88,1.9-130.4-0.2c-4.5,0-9-0.1-13.5-0.1c-22.6,0-45.1,0-67.5,0c-5.1,0.2-10.1,0.5-15,0.7
					c-44.7,1.9-90.4,0.3-133.3-0.6c-4.2,0-8.3,0.2-12.5,0.2c-46.7,0-92.7,0-135.4,0c-3.9,0-7.8-0.6-11.7-0.9
					c-28.2-2.5-56.5-0.5-84.9,2.7c-17,2.1-36.9-0.9-53.5-1.9c-5.3,0-10.3,0.1-15.2,0.1c-38.6,0-59.8,0-59.8,0v-4.1H0z"/>
				<path class="st5" d="M798.1,398.3c0,0-28.3,0-75.9,0c-5.3,0-10.8,0-17.2-0.5c-39.2-4.3-81.7,4.6-121.4,0.5c-3.8,0-7.7,0-11.6,0
					c-42.7,0-88.7,0-135.4,0c-4.2,0-8.3-1.1-12.5-1.1c-47.7-2.4-98.7-3-148.2,0.5c-4,0-7.9,0.6-11.9,0.6c-17.6,0-35.2,0-52.6,0
					c-3.5,0-7-1.1-10.5-1.3c-45.7-4.6-91.1,4.4-136.9-0.1c-4.5-0.3-9.1,0.6-13.6,0.6c-4-0.1-7.9,0.8-11.5,0.8c-25.2,0-39.1,0-39.1,0
					v-4.1c0,0,16.1,0,44.7,0c3.2,0,6.5-0.2,10-0.1c46.8,3.5,97.9-3.6,146.5-0.2c3.5,0.2,7.1,0.3,10.6,0.3c17.6,0,35.2,0,52.5,0
					c3.9,0,7.9-0.3,11.9-0.3c46.6-2.4,89.1-3.5,135.6,0.1c4.2,0.1,8.4,0.2,12.5,0.2c51.8,0,103.1,0,150.2,0c3.6,0,7.2,0,10.8,0
					c43.7,3.6,89.1-2.1,131,0c5.1,0,10,0,14.7,0c42.4,0,67.1,0,67.1,0v4.1H798.1z"/>
				<path class="st5" d="M798.1,414.6c0,0-35,0.9-76.5,0c-5.3-0.1-17.3-1.6-23.4-2.1c-42-3.7-72.2,7.8-115,3.6
					c-3.6-0.4-7.2,0.3-11.1,0.3c-42.7,0-88.7,0-135.4,0c-4.2,0-8.3-0.9-12.5-0.9c-50.5-2.4-85.5-7.3-134.9-2.6
					c-7.8,1.5-21.2,2.8-25.3,2.7c-17.1,0-34.2,0.7-51.2,0.7c-3.4,0-6.8,0-10.2,0c-44.5-8.2-92.7,3.6-138.5,0.2
					c-4.7-0.2-9.2-0.2-13.7-0.2c-4,0-7.8,0-11.4,0s-7,0-10.1,0c-18.9,0-29,0-29,0v-8.2c0,0,13.9,0,39.1,0c3.6,0,7.4,0,11.4,0
					c4.5,0,9.1,0.8,13.7,1c45.8,4.6,91.2-5.5,136.9-0.8c3.5,0.2,6.9-0.2,10.4-0.2c17.5,0,35,0,52.6,0c3.9,0,7.9,0.8,11.9,0.8
					c52.3-3.6,97.7-2.8,148.2-0.4c4.2,0,8.3-0.4,12.5-0.4c46.7,0,92.7,0,135.4,0c3.9,0,7.7,0.8,11.3,1.1c40,3.3,82.5-3.5,121.5-0.6
					c6.3,0.5,11.4,0.7,16.7,0.9c45.8,1.8,76.5,0.2,76.5,0.2L798.1,414.6L798.1,414.6z"/>
				<path class="st5" d="M798.1,433c0,0-24.7,0-67.1,0c-4.7,0-9.6-1.3-14.6-1.7c-8-2-17.2-2-25.7-2c-42.5-1.2-53.2,5.7-127.2,3.7
					c-3.7,0-7.4,0-11.1,0c-40.9,0-84.4,0-128.2,0c-4.2,0-8.3-1.3-12.5-1.3c-34.9-2.7-67.5-3.3-101.3-2.1c-6.8,0.2-13.6,0.2-20.4,0.5
					c-30.9,1.2-62,1.2-93.1,1.1c-4.4,0-8.9-0.1-13-0.3c-34.2-0.3-71.1-0.4-105.5-0.3c-5.5-0.2-10.5-0.2-15.5-0.2
					c-4.9,0-9.9,1.4-14.8,1.5c-10.1-0.1-19,1.2-26.2,1.2C7.4,433,0,433,0,433v-6.2c0,0,7.4,0,21.9,0c7.2,0,16.1,0,26.4,0
					c5.4,0,10.8,0,16.3,0c42.6,6.2,88-1.8,130.4,0.6c4.5,0,9,0.3,13.5,0.3c22.6,0,45.1,0.1,67.5,0.1c5.1-0.3,10.1-0.5,15.1-0.7
					c44.7-2.2,90.4-0.7,133.3,0.4c4.2,0,8.3-0.5,12.5-0.5c46.7,0,92.7,0,135.4,0c3.9,0,7.8,1,11.7,1.4c28.2,2.8,56.5,0.7,84.9-2.9
					c17-2.4,36.9,0.8,53.5,2c5.3,0,10.3-0.4,15.2-0.4c38.6,0,60.7,0,60.7,0v5.9H798.1z"/>
				<path class="st5" d="M0,507.7c0,0,23.8,0,66.2,0c4.7,0,9.6,0,14.7,0c13.5,2.1,24.9,1.8,39,1.8c31.2-3.1,59.6-3,91.4-2.5
					c3.9,0.3,7.7,0.7,11.3,0.7c47.2,0,98.4,0,150.2,0c4.2,0,8.3-0.2,12.5-0.2c35.7,0.9,72.8,0.9,108.5,0.2
					c5.1-0.1,10.2-0.3,15.3-0.3c30.6,0,60.9-0.1,91.2-0.1c5.1,0,10.1,0,15.1,0c32,0,60.3,0,90.9-0.2c5.6,0.1,10.9,0.1,16,0.1
					c10.3,0,20.7,0.2,31.1,0.2c9.2,0.1,17.2,0.4,23.8,0.4c13.1,0,20.7,0,20.7,0v2.1c0,0-7.1,0-19.5,0c-6.2,0-13.8,0-22.6,0
					c-5.2,0-10.4,0-15.6,0s-10.4,0-15.5,0c-37.7,0-71.8-0.2-109-0.1c-4.2-0.1-8.7-0.2-13.3-0.2c-31.7,0-63.5,0-95.5,0.2
					c-6.9,0.1-13.7,0.2-20.4,0.3c-33.8,0.4-66.5,0.4-101.4-0.3c-4.2,0-8.3,0.2-12.5,0.2c-43.8,0-87.3,0-128.2,0c-3.7,0-7.4,0-11.1,0
					c-45.6-4.1-85.3,1.9-130.7,0.8c-5.7,0-17,1.2-22.2-0.6c-4.9-0.3-9.9-0.2-14.6-0.2c-42.4,0-66.2,0-66.2,0v-2.3H0z"/>
				<path class="st5" d="M0,496.3c0,0,24.9,0,69,0c4.9,0,10,0,15.3,0c44.2,2.1,89.6-3.1,135.6,0c3.7,0,7.4,0,11.2,0
					c4.9,0,9.8,0,14.7,0c4.9,0,9.9,0,14.9,0c15.3,0,32.3,0,45.9,0c5.2,0,10.4,0,15.6,0c20.9,0,42,0,63.2,0c4.2,0,8.3-0.3,12.5-0.3
					c29.8,0,57.4-0.2,86.5-0.1c4.2,0,8.3-0.1,12.6-0.1c37.3,0,75.1-0.1,113-0.1c5.4,0,10.8,0,16.2,0c21.4,0,41.2,0,64.3-0.1
					c5.7,0,11,0,16.4,0c16.1,0,32,0.3,47.9,0.2c9,0.1,16.8,0.4,23.2,0.4c12.8,0,20.2,0,20.2,0v2.1c0,0-7.6,0-20.7,0
					c-6.6,0-14.6-0.3-23.8-0.4c-11.7,0.2-23.4,0.1-35,0.1c-3.9,0-7.7-0.1-11.6-0.1c-28.4-0.1-59.6-0.2-88.5-0.7
					c-4.6,0-9.1-0.1-13.6-0.1c-31.8-0.2-63.6-0.2-95.7,0.7c-4.8,0.1-9.5,0.1-14.1,0.2c-32.6,0.7-64.9,0.8-97.1,0
					c-4.2,0-8.3,0.2-12.5,0.2c-53,0-105.7,0-154.4,0c-3.7,0-7.5-0.3-11.2-0.3c-46-4.2-91.4,4.3-135.9,0.4c-5-0.3-10.1-0.1-15-0.1
					c-44,0-69,0-69,0v-1.9H0z"/>
				<path class="st5" d="M0,476.1c40.7,0.1,81.4,0.2,122.2,0.3c5.1,0,10.2,0,15.4,0c88.7-1,173.6,1,262.3,0.7
					c4.9,0,9.8-0.1,14.7-0.2c4.9-0.1,9.7-0.2,14.6-0.3c5.3,0,10.4,0,15.5-0.1c15,0,29.9,0,44.9,0c5.4,0,10.9,0,16.3,0
					c28.7,0.2,54.1,0.2,81.8-0.1c5.4,0,10.8-0.1,16.2-0.1c48.6-0.3,96.7-0.8,146.1-0.3c10.8,0,37.3-0.2,48.1-0.2c4.9,0-2.6,0,0,0
					c2.6,0,0,0,0,0l0,0c0,0,2.4,0,0,0c-2.4,0,4.6,0.8,0,0.8c-10.8,0-36.2,0.4-47.1,0.5c-48.2-0.5-97,0.1-146.2,0.4
					c-5.5,0-11.1,0.2-16.6,0.2c-28.1,0.3-53.6,0.3-81.9,0.1c-5.5,0-11,0-16.4,0c-9.8,0-19.6,0-29.4,0c-4.9,0-9.8,0-14.7,0
					c-14.1,0.1-28.2,0.1-42.5,0.1c-4.8,0-9.6,0-14.4,0c-83.4-0.6-168.3-0.6-251.3-0.3c-5.1,0-10.4,0-15.5,0
					c-40.8-0.1-81.5-0.2-122.2-0.3L0,476.1z"/>
				<path class="st5" d="M0,789.2c0,0,46,0,118.4,0c3.5,0,7.3,0.7,11.2,0.8c13.1-0.1,30.1-0.4,44.8-0.5c3.6,0,7.6-0.3,11.6-0.3
					s8.1,0,12.2,0c3.5,0,7,0,10.5,0c36.1,0,75.8,0,112.2,0c3.9,0,7.8,0,11.7,0c14.7,0,29.4,0,44.3,0c4.9,0,9.9,0,14.8,0
					c40.3,2.1,77.2,1,117.4,0c4,0,8,0,12,0c24.9,0,50.2,0,75.5,0c5.1,0,10.4,0.9,15.9,1.1c37.9,3.8,71.9-3.9,110-1.1
					c4.3,0.2,8.8-0.1,13.3-0.1c4.6,0,9.1,0,13.6,0c6.1,0,11.7,0,16.7,0c20.2,0,32,0,32,0v4.1c0,0-18.2,0-48.7,0
					c-3,0-6.2,0.2-9.4,0.1c-4.1,0-8.3,0.1-12.5,0.1c-37.4-1-77.1,0.1-115.3,0.2c-5.4-0.1-10.5-0.1-15.6-0.1c-25.4,0-50.6,0-75.5,0
					c-4,0-8,0-12,0c-34.6,0-68.6-0.2-102.5-0.2c-5,0-9.9-0.2-14.9-0.2c-19.8,0-39.6,0-59.1,0c-3.9,0-7.8,0-11.7,0
					c-36.4,0-76.1,0-112.2,0c-3.5,0-7,0-10.5,0c-114.9,0-198.2,0-198.2,0V789.2L0,789.2z"/>
				<path class="st5" d="M0,775.2c0,0,34,0,90.6,0c3.3,0,6.7,0,10.2,0c30.4,0,64.5,0,95,0c4.4,0,8.8,0,13.2,0c4.5,0,9,0,13.5,0
					c3.4,0,6.9,0,10.4,0c23.2,0,43,0,64.4,0c3.7,0,7.3,0,11,0c20,0,40.4,0,60.8,0c5.1,0,10.2,0,15.3,0c44.6,2.1,89.9,0,136.5,0
					c4,0,7.9,0,11.9,0c13.6,0,27.1,0,40.5,0c6.7,0,13.4,0,20.1,0c3.8,0,7.8,0.8,11.9,1c42.1,3.8,87.4-4.2,129.8,0
					c4.8,0,9.7-0.5,14.5-0.5c6.1,0,11.6-0.5,16.6-0.5c20.1,0,31.8,0,31.8,0v2.1c0,0-11.8,0-32,0c-5.1,0-10.6,0-16.7,0
					c-4.5,0-9,0-13.5,0c-43-2.1-88.4,3.1-132.4,0.2c-4.1-0.1-8-0.2-11.9-0.2c-19.6,0-39.3,0-58.7,0c-3.9,0-7.9,0-11.9,0
					c-40.9,2.1-80.6,2.1-121,0.1c-5.3-0.1-10.4-0.1-15.5-0.1c-25.6,0-51.1,0-76.2,0c-3.7,0-7.4,0-11.1,0c-27,0-55.4,0-85,0
					c-3.4,0-6.8,0-10.1,0c-31.2,0-59.6,0-91.6,0c-3.4,0-6.7,0-10,0c-62.4,0-100.6,0-100.6,0v-2.1H0z"/>
				<path class="st5" d="M0,720.9c0,0,34.4-0.8,75.9,0c5.3,0.1,17.1,1.4,23.2,1.8c42,3.2,72.1-5.9,114.9-2.3c3.6,0.3,7.1,0.6,11,0.6
					c42.7,0,88.7,0,135.4,0c4.1,0,8.3-0.1,12.5-0.1c50.5,2.1,85.5,6,134.9,1.8c7.8-1.3,21.2-1.8,25.3-1.7c17.1,0,34.2,0,51.2,0
					c3.4,0,6.8,0,10.2,0c44.5,4.1,92.7-3.2,138.5-0.2c4.7,0.2,9.2,0.2,13.7,0.2c4,0,7.8,0,11.4,0c3.6,0,7,0,10.1,0
					c18.9,0,29.9,0,29.9,0v4.1c0,0-14.9,0-40,0c-3.6,0-7.4,0-11.4,0c-4.5,0-9.1,0-13.7-0.3c-45.8-4-91.2,4.4-137,0.4
					c-3.5-0.1-6.9-0.1-10.4-0.1c-17.5,0-35,0-52.6,0c-3.9,0-7.9,0-11.9,0c-52.3,3.1-97.7,2.1-148.2,0c-4.2,0-8.3,0-12.5,0
					c-46.7,0-92.7,0-135.4,0c-3.9,0-7.7-0.1-11.3-0.3c-40-2.9-82.5,3.4-121.5,0.9c-6.3-0.4-11-0.5-16.3-0.6C30.2,723.5,0,725,0,725
					V720.9z"/>
				<path class="st5" d="M0,705.4c0,0,23.8,0,66.2,0c4.7,0,9.6-0.4,14.6,0c8,1.8,17.2,2.5,25.7,2.5c42.5,1,53.2-6.6,127.2-2.4
					c3.7,0,7.4,0,11.1,0c40.9,0,84.4,0,128.2,0c4.2,0,8.3-0.4,12.5-0.3c34.9,2.3,67.5,2.1,101.3,1.1c6.8-0.2,13.6-0.5,20.4-0.8
					c30.9-1,62-1.3,93.1-1.1c4.4,0,8.9,0,13,0.2c34.2,0.3,71.1,0.3,105.5,0.2c5.5,0.2,10.5,0.2,15.5,0.1c4.9,0,9.9,0.3,14.8,0.2
					c10.1,0.1,19,0.4,26.2,0.4c14.5,0,22.9,0,22.9,0v2.1c0,0-8.4,0-22.9,0c-7.3,0-16.1,0-26.4,0c-5.4,0-10.8,0-16.3,0
					c-42.6-2.1-88,1.7-130.4-0.3c-4.5,0-9-0.2-13.5-0.2c-22.6,0-45.1-0.1-67.5,0c-5.1,0.2-10.1,0.4-15,0.7
					c-44.7,1.9-90.4,0.5-133.3-0.5c-4.2,0-8.3,0.3-12.5,0.3c-46.7,0-92.7,0-135.4,0c-3.9,0-7.8-0.7-11.7-1
					c-28.2-2.5-56.5-0.5-84.9,2.6c-17,2.1-36.9-0.8-53.5-1.8c-5.3,0-10.3,0.3-15.2,0.3c-38.6,0-59.8,0-59.8,0v-2.3H0z"/>
				<path class="st5" d="M0,689.3c0,0,23.8,0,66.2,0c4.7,0,9.6,0,14.7,0c13.5,4.1,24.9,2.7,39,2.7c31.2-3.1,59.6-3.4,91.4-2.9
					c3.9,0.3,7.7,0.2,11.3,0.2c47.2,0,98.4,0,150.2,0c4.2,0,8.3,0.6,12.5,0.6c35.7,0.9,72.8,1.3,108.5,0.6
					c5.1-0.1,10.2-0.1,15.3-0.1c30.6,0,60.9,0,91.2,0c5.1,0,10.1,0,15.1,0c32,0,60.3,0,90.9-0.2c5.6,0.1,10.9,0.2,16,0.2
					c10.3,0,20.7-0.6,31.1-0.6c9.2,0.1,17.2-0.5,23.8-0.5c13.1,0,20.7,0,20.7,0v4.1c0,0-7.1,0-19.5,0c-6.2,0-13.8,0-22.6,0
					c-5.2,0-10.4,0-15.6,0s-10.4,0-15.5,0c-37.7,0-71.8-0.4-109-0.3c-4.2-0.1-8.7-0.3-13.3-0.3c-31.7,0-63.5,0-95.5,0.1
					c-6.9,0.1-13.7,0.2-20.4,0.2c-33.8,0.4-66.5,0.6-101.4-0.2c-4.2,0-8.3,0.4-12.5,0.4c-43.8,0-87.3,0-128.2,0c-3.7,0-7.4,0-11.1,0
					c-45.6-4.1-85.3,1.6-130.7,0.6c-5.7,0-17,1.3-22.2-0.5c-4.9-0.3-9.9-0.1-14.6-0.1c-42.4,0-66.2,0-66.2,0v-4H0z"/>
				<path class="st5" d="M0,676.1c0,0,29.6,0,80.3,0c5.6,0,11.5,0.1,16.8,0.4c34.1,3.9,71-4.6,105.7-0.6c4.4,0.2,8.4,0.2,12.4,0.2
					c6.6,0,13.4,0,20.1,0c3.4,0,6.9,0.1,10.3,0.1c27.4,0,53,0,80-0.1c4.1,0,8.3,0,12.4,0c16.3,0,32.4,0,47.4,0c4.2,0,8.3,0,12.5,0
					c29.8,0,57.4,0,86.5,0c4.2,0,8.3,0.1,12.6,0.2c5.2-0.1,10.4-0.2,15.6-0.3c5.2-0.1,10.4-0.2,15.6-0.2c14.3-0.5,31.3-0.5,46.9-0.3
					c5.2,0,10.4-0.1,15.6-0.1c62.5,0,124.8,0.8,187.2,0.8c12.8,0,20.2,0,20.2,0v2.1c0,0-7.4,0-20.2,0c-6.4,0-14.2,0.1-23.2,0
					c-84.6-0.9-172.5-0.8-257.8,0.2c-4.2,0-8.4-0.1-12.6-0.1c-29.1,0-56.7-0.1-86.5-0.1c-4.2,0-8.3,0-12.5,0c-4.1,0-8.2,0-12.2,0
					c-4.1,0-8.2,0-12.2,0c-9.9,0-19.8,0-29.8,0c-3.3,0-6.7,0-10.1,0c-25.3,0-50.8,0-75.4,0c-3.5,0-7,0-10.5,0s-6.9,0-10.4,0
					c-4.1,0-8.2,0.1-12.3,0.1c-41.5-4.2-86.9,3.1-128.2-0.1c-5.9,0-11.5-0.1-16.9-0.1c-43.1,0-67.3,0-67.3,0V676.1L0,676.1z"/>
				<path class="st5" d="M0,661c0,0,28.1,0,76.7,0c5.4,0,11,0,16.9,0c34.9,0,66.1,0,101.1-0.1c4.1,0.1,7.9,0.1,11.8,0.1
					c3.2,0,6.4,0,9.7,0c3.3,0,6.5,0,9.8,0c35.9,0,70-2.1,106.5-0.1c4.6,0,9,0.1,13.5,0.1c13.3,0,26.7,0,40.4,0c4.1,0,8.2,0,12.4,0
					c12.3,0,24.5,0,36.7,0c4.2,0,8.3,0,12.4,0c4.1,0,8.3,0,12.4,0c8.1,0,16.1,0,24,0c4,0,8,0.5,11.9,0.6c32.2-0.1,63.4-1.9,94.4-0.2
					c5.2,0,10.5-0.4,15.7-0.4c57.5,0.1,114.9,0.1,172.7,0.1c12.2,0,19.2,0,19.2,0v4.1c0,0-7.4,0-20.2,0c-57.2,0-114.4-1.3-171.6-1.4
					c-5.2,0-10.4-0.3-15.6-0.3c-25.5-0.1-53.8-0.3-78.1,0.5c-5.2,0.1-10.5,0.2-15.7,0.3c-4.2-0.1-8.4-0.1-12.5-0.1
					c-20.5,0-39.9,0.5-61.6,0.5c-4.2,0-8.3,0.5-12.5,0.5c-3.9,0-7.8,0-11.8,0c-3.9,0-7.9,0-11.8,0c-12.9,0-26.1,0-39.3,0
					c-4.4,0-8.9,0-13.3,0c-32.7,0-69.6,0-103.9,0c-3.3,0-6.7,0-9.9,0c-3.3,0-6.6,0-9.8,0c-3.9,0-7.8,0-12.1-0.2
					c-33-3-69.9,0.2-102.8,0.2c-6,0-11.7,0-17.2,0c-49.5,0-78.4,0-78.4,0V661H0z"/>
				<path class="st5" d="M0,634.9c0,0,5.3,0,18.4,0c3.3,0,7,0,11,0c59.9,0,119.3,0,178.8,0c5.5,0,10.9,0,16.5,0
					c42.7-2.1,88.1,0,129.7,0c5.4,0,10.9,0,16.3,0c27.2,0,54.5,0,81.9,0c3.3,0,6.6,0,9.9,0s6.6,0,9.9,0c4.1,0,8.4,0.4,12.3,0.4
					c43.6-2.1,89-1.9,130.6-1c5.5,0,10.9-0.3,16.4-0.3c49.1,0.1,98,0.8,146.3,0.8c12.7,0,20.1,0,20.1,0v2.1c0,0-7.3,0-20.1,0
					c-48.3,0-97.2-0.1-146.3-0.3c-5.4,0-10.9-0.3-16.4-0.3c-41.7-1.2-87-1.4-130.6,0.6c-4.1,0-8.2,0-12.3,0c-19.8,0-39.8,0-59.9,0
					c-4.1,0-8.1,0-12.2,0c-4.2,0-8.5,0-12.8,0s-8.6,0-12.9,0c-5.4,0-10.8,0-16.1,0c-5.4,0-10.8,0-16.4-0.1
					c-43.5-2-86.1,0.1-128.2,0.1c-5.4,0-10.9,0-16.4,0s-11,0-16.5,0c-4.1,0-8.1,0-12.1,0s-7.9,0-11.8,0c-37.1,0-76.9,0-114.6,0
					c-4.7,0-9,0-13,0c-20,0-29.4,0-29.4,0v-2H0z"/>
				<path class="st5" d="M0,620.6c65.6-0.3,138.6-0.5,208.2-0.6c5.4,0,10.4,0,16.1,0c26.2-0.2,51.7-0.3,77.1-0.3c4.2,0,8.3,0,12.5,0
					c35.9-0.1,69.9-0.1,107.2,0.1c4.4,0,9,0,13.5,0.1c4.5,0,8.9,0,13.4,0c5.3,0,10.7,0,16,0s11.1,0,16.2,0
					c42.5,1.8,85-0.3,128.1,0.8c5.7,0,11.1-0.1,16.5-0.2c48.3-0.7,96.5-1.9,144.9-0.3c4.5,0,31.9-0.3,28.4-0.3c-5.1,0,0,0,0,0v3.9
					c0,0-10.3,0-28.3-0.1c-49.6-1.1-99.2-0.6-148.8-0.2c-5.6,0-11.2,0.1-17.1,0.1c-41.4-0.8-86.8-1.9-130.4-0.2
					c-5.6,0-11.2,0-16.8,0c-9,0-18,0-27,0c-4.5,0-9,0-13.5,0c-29.6-0.6-57.9-0.6-86.2-0.3c-4.9,0-9.9,0-14.7-0.1
					c-34.2-0.2-67.9,0-101.7,0.6c-5.4,0-10.8,0.1-16.2,0.1C132.4,623.8,67.7,624,3,624c-3.3,0-3,0-3,0V620.6z"/>
				<path class="st5" d="M0,465.7c0,0,46.9,0,121.7,0c4.2,0,8.4,0.2,12.7,0.2c18.2,0,38,0.1,55.1,0.1c5,0,10,0.1,14.9,0.1
					c49.8,0,100,0,149.6,0c5,0,9.9,0,14.9,0c29.7,0,60.8,0,89.7,0c5.4,0,10.7,0,16.1,0c58.8-0.3,116-2.1,174.9-0.2
					c3.1,0,6.2-0.2,9.4-0.2c9.3,0,18.8,0,29.2,0c5.9,0,11.6,0,17,0c54.8,0,92.9,0,92.9,0v2.1c0,0-31.5,0-77.1,0
					c-5.1,0-10.3,0-15.8,0c-15.3,0-30,0-44.5,0c-4.9,0-9.7,0.2-14.5,0.2c-58,0-117.4,0.1-175.9,0.1c-3.8,0-7.5,0.1-11.3,0.1
					c-4.4,0-8.8,0-13.2,0c-21.6,0-44.2,0-66.7,0c-4.3,0-8.8,0.1-13.2,0.1c-56.4,0.8-112.2,0.3-168.3,0.1c-5.1,0-10.2-0.3-15.3-0.3
					c-15.5-0.1-29.7-0.3-43-0.3c-4.2,0-8.4,0-12.5,0c-77.6,0-126.8,0-126.8,0V465.7L0,465.7z"/>
				<path class="st5" d="M0,647.3c0,0,48.5,0,123.5,0c4.2,0,8.4,0.3,12.7,0.3c18.3,0,38.1,0.2,55.3,0.2c5,0,10,0.1,15,0.1
					c49.9,0,100.3,0,150.1,0c5,0,10,0,14.9,0c29.8,0,61,0,89.9,0c5.4,0,10.8,0,16.1,0c58.9-0.3,116.3-2.2,175.4-0.3
					c3.1,0,6.3-0.2,9.4-0.2c9.3,0,18.8,0,29.2,0c5.9,0,11.6,0,17.1,0c55,0,89.4,0,89.4,0l0,0c0,0-27.9,0-73.6,0
					c-5.1,0-10.4,0-15.9,0c-15.3,0-30,0-44.6,0c-4.9,0-9.8,1.3-14.6,1.3c-58.2,0-117.7,0.7-176.4,0.7c-3.8,0-7.6,0.3-11.3,0.3
					c-4.4,0-8.8,0.2-13.3,0.2c-21.6,0-44.3,0.1-66.8,0.1c-4.4,0-8.9,0.1-13.2,0.1c-56.6,0.8-112.5,0.3-168.7,0.1
					c-5.1,0-10.2-1.4-15.4-1.4c-15.6-0.1-29.7-1.4-43.1-1.4c-4.2,0-8.4,0-12.5,0C50.8,647.3,0,647.3,0,647.3L0,647.3z"/>
				<path class="st5" d="M0,453.7c0,0,27.1,0,75.6,0c3,0,6.1,0,9.3,0c132.7-2.1,268.5-2.1,401.5,0c4.9,0,9.8,0,14.7,0
					c58.9,0,118.5,0,178.6,0c5.5,0,10.9,0,16.4,0c27.4,0,54.9,0,82.8,0c5.1,0,16.5,0,19.2,0c2.7,0,0,0,0,0v4.1c0,0-9,0-19.2,0
					c-2.5,0-5.4,0-8.5,0c-27.1,0-53.8,0-80.4,0c-5.3,0-10.6,0-15.9,0c-58.1-2.1-117.1-0.3-174.7-0.1c-4.8,0-9.6,0.1-14.4,0.1
					c-128.8-2-258.9,0-390.3,0c-3.4,0-6.6,0-9.8,0c-53.9,0-84.9,0-84.9,0V453.7L0,453.7z"/>
				<path class="st5" d="M0,440.8c0,0,28.1,0,77.9,0c3.1,0,6.4,0,9.6,0c130.2,0,260.3-1.1,389.1,1.2c5.1,0,10.5,0.6,15.7,0.7
					c56.6,0.7,113.9,2.5,169.8,0.4c5.6,0,11.1-0.9,16.6-0.9c37.4,0,82.3-1.4,119.5-1.4c2.7,0,0,0,0,0v4.1c0,0,2.7,0,0,0
					s-14.1,0-19.2,0c-30.9,0-62,0-93,0c-5.2,0-10.6,0-15.8,0c-57.7,0-117.2,0-176,0c-5.4,0-11,0-16.3,0c-130-4.1-257.3,0-386.3,0
					c-4,0-7.7,0-11.4,0C29,445,0,445,0,445V440.8z"/>
				<path class="st5" d="M798.1,744.7c0,0-35,0.9-76.5,0c-5.3-0.1-17.3-1.6-23.4-2.1c-42-3.7-72.2,7.9-115,3.8
					c-3.6-0.4-7.2,0.4-11.1,0.4c-42.7,0-88.7,0-135.4,0c-4.2,0-8.3-1-12.5-1c-50.5-2.4-85.5-7.4-134.9-2.6
					c-7.8,1.5-21.2,2.9-25.3,2.8c-17.1,0-34.2,0.8-51.2,0.8c-3.4,0-6.8,0-10.2,0c-44.5-8.2-92.7,3.6-138.5,0.2
					c-4.7-0.2-9.2-0.2-13.7-0.2c-4,0-7.8,0-11.4,0s-7,0-10.1,0c-18.9,0-29,0-29,0v-8.2c0,0,13.9,0,39.1,0c3.6,0,7.4,0,11.4,0
					c4.5,0,9.1,0.7,13.7,0.9c45.8,4.6,91.2-5.4,136.9-0.7c3.5,0.2,6.9-0.2,10.4-0.2c17.5,0,35,0,52.6,0c3.9,0,7.9,0.7,11.9,0.7
					c52.3-3.6,97.7-2.7,148.2-0.3c4.2,0,8.3-0.3,12.5-0.3c46.7,0,92.7,0,135.4,0c3.9,0,7.7,0.7,11.3,1c40,3.3,82.5-3.6,121.5-0.7
					c6.3,0.5,11.4,0.7,16.7,0.9c45.8,1.8,76.5,0.2,76.5,0.2L798.1,744.7L798.1,744.7z"/>
				<path class="st5" d="M798.1,764.1c0,0-24.7,0-67.1,0c-4.7,0-9.6-0.4-14.6-0.8c-8-2-17.2-2.4-25.7-2.4
					c-42.5-1.2-53.2,7.3-127.2,3.2c-3.7,0-7.4,0-11.1,0c-40.9,0-84.4,0-128.2,0c-4.2,0-8.3-0.4-12.5-0.4
					c-34.9-2.7-67.5-2.9-101.3-1.7c-6.8,0.2-13.6,0.4-20.4,0.7c-30.9,1.2-62,1.3-93.1,1.2c-4.4,0-8.9-0.1-13-0.3
					c-34.2-0.3-71.1-0.3-105.5-0.3c-5.5-0.2-10.5-0.2-15.5-0.2c-4.9,0-9.9,0.5-14.8,0.6c-10.1-0.1-19,0.3-26.2,0.3
					C7.4,764,0,764,0,764v-4c0,0,7.4,0,21.9,0c7.2,0,16.1,0,26.4,0c5.4,0,10.8,0,16.3,0c42.6,4.1,88-1.9,130.4,0.4
					c4.5,0,9,0.2,13.5,0.2c22.6,0,45.1,0.1,67.5,0c5.1-0.3,10.1-0.5,15.1-0.7c44.7-2.2,90.4-0.6,133.3,0.5c4.2,0,8.3-0.4,12.5-0.4
					c46.7,0,92.7,0,135.4,0c3.9,0,7.8,0.9,11.7,1.3c28.2,2.8,56.5,0.6,84.9-3c17-2.4,36.9,0.9,53.5,2.1c5.3,0,10.3-0.3,15.2-0.3
					c38.6,0,60.7,0,60.7,0v4H798.1z"/>
			</g>
		</g>
	</g>
</g>
<g>
	<g id="mouse_computer">
		<g>
			<path class="st10" d="M465.4,464.8h257.8c5.6,0,10.1,4.5,10.1,10.1c0,5.6-4.5,10.1-10.1,10.1h-51.8c-5.5,0-10.1,4.5-10.1,10.1
				c0,5.5,0,58.2,0,58.2h4.4c0,0,0-55,0-58.2c0-3.1,2.6-5.7,5.7-5.7h51.8c8,0,14.4-6.5,14.4-14.5s-6.5-14.5-14.4-14.5H465.4"/>
		</g>
		<g>
			<path class="st10" d="M668.6,549.4c11,0,20,9,20,20v48c0,11-9,20-20,20h-5.3v-88H668.6z"/>
			<path class="st1" d="M657.9,549.4h5.3v88h-5.3c-11,0-20-9-20-20v-48C637.9,558.3,646.9,549.4,657.9,549.4z"/>
		</g>
		<g>
			<path class="st0" d="M669.9,570.6v4.3c0,3.7-3,6.7-6.7,6.7V564C666.9,563.9,669.9,566.9,669.9,570.6z"/>
			<path class="st12" d="M663.3,563.9L663.3,563.9v17.6l0,0c-3.7,0-6.7-3-6.7-6.7v-4.3C656.6,566.9,659.6,563.9,663.3,563.9z"/>
		</g>
	</g>
	<g id="screen">
		<g>
			<path class="st6" d="M346.3,403.4c-4.3,17.7-8.6,35.3-12.9,53c40.3,0,80.6,0,120.9,0c-4.3-17.7-8.6-35.3-13-53
				C409.6,403.4,378,403.4,346.3,403.4z"/>
			<path class="st7" d="M393.1,456.4c20.4,0,40.8,0,61.1,0c-4.3-17.7-8.6-35.3-13-53c-16.1,0-32.1,0-48.2,0v53H393.1z"/>
			<path class="st10" d="M461.7,455.5H325.9c-3.4,0-6.2,3.3-6.2,7.3v2.8H468v-2.8C468,458.7,465.2,455.5,461.7,455.5z"/>
			<path class="st10" d="M189.6,382.8V412c0,5.6,4.5,10.2,10.2,10.2h388.1c5.6,0,10.2-4.5,10.2-10.2v-29.2H189.6z"/>
			<path class="st12" d="M598,382.8v-247c0-5.6-4.6-10.2-10.2-10.2h-388c-5.6,0-10.2,4.5-10.2,10.2v247.1H598V382.8z"/>
			<rect x="206.3" y="141.5" class="st11" width="375" height="224.5"/>
		</g>
	</g>
	<g id="keyboard">
		<path class="st6" d="M585.9,505c0-2.6-2.2-4.7-5-4.7H206.7c-2.7,0-5,2.1-5,4.7v137.5c0,2.6,2.2,4.7,5,4.7h374.2c2.7,0,5-2.1,5-4.7
			V505z"/>
		<path class="st8" d="M585.9,642.5V505c0-2.6-2.2-4.7-5-4.7h-269l194,146.8h75C583.6,647.2,585.9,645.1,585.9,642.5z"/>
		<g>
			<g>
				<path class="st10" d="M232.3,532.1c0,0.7-0.5,1.2-1.2,1.2h-18.5c-0.7,0-1.2-0.5-1.2-1.2v-18.5c0-0.7,0.5-1.2,1.2-1.2H231
					c0.7,0,1.2,0.5,1.2,1.2L232.3,532.1L232.3,532.1z"/>
				<path class="st10" d="M270.6,557.6c0,0.7-0.5,1.2-1.2,1.2h-18.5c-0.7,0-1.2-0.5-1.2-1.2v-18.5c0-0.7,0.5-1.2,1.2-1.2h18.5
					c0.7,0,1.2,0.5,1.2,1.2V557.6z"/>
				<path class="st10" d="M276.6,583c0,0.7-0.5,1.2-1.2,1.2h-18.5c-0.7,0-1.2-0.5-1.2-1.2v-18.5c0-0.7,0.6-1.2,1.2-1.2h18.5
					c0.7,0,1.2,0.5,1.2,1.2V583z"/>
				<path class="st10" d="M264.1,608.5c0,0.7-0.5,1.2-1.2,1.2h-18.5c-0.7,0-1.2-0.5-1.2-1.2V590c0-0.7,0.5-1.2,1.2-1.2h18.5
					c0.7,0,1.2,0.5,1.2,1.2V608.5z"/>
				<path class="st10" d="M232.3,637.1c0,0.7-0.5,1.2-1.2,1.2h-18.5c-0.7,0-1.2-0.5-1.2-1.2v-21.7c0-0.7,0.5-1.2,1.2-1.2H231
					c0.7,0,1.2,0.6,1.2,1.2L232.3,637.1L232.3,637.1z"/>
				<path class="st10" d="M257.6,637.1c0,0.7-0.5,1.2-1.2,1.2h-18.5c-0.7,0-1.2-0.5-1.2-1.2v-21.7c0-0.7,0.5-1.2,1.2-1.2h18.5
					c0.7,0,1.2,0.6,1.2,1.2V637.1z"/>
				<path class="st10" d="M283,637.1c0,0.7-0.5,1.2-1.2,1.2h-18.5c-0.7,0-1.2-0.5-1.2-1.2v-21.7c0-0.7,0.5-1.2,1.2-1.2h18.5
					c0.7,0,1.2,0.6,1.2,1.2V637.1z"/>
				<path class="st10" d="M499.9,637.1c0,0.7-0.6,1.2-1.2,1.2h-18.5c-0.7,0-1.2-0.5-1.2-1.2v-21.7c0-0.7,0.5-1.2,1.2-1.2h18.5
					c0.7,0,1.2,0.6,1.2,1.2V637.1z"/>
				<path class="st10" d="M525.3,637.1c0,0.7-0.5,1.2-1.2,1.2h-18.5c-0.7,0-1.2-0.5-1.2-1.2v-9.6c0-0.7,0.5-1.2,1.2-1.2h18.5
					c0.7,0,1.2,0.5,1.2,1.2V637.1z"/>
				<path class="st10" d="M576.2,637.1c0,0.7-0.5,1.2-1.2,1.2h-18.5c-0.7,0-1.2-0.5-1.2-1.2v-9.6c0-0.7,0.6-1.2,1.2-1.2H575
					c0.7,0,1.2,0.5,1.2,1.2V637.1z"/>
				<path class="st10" d="M315,637.1c0,0.7-0.5,1.2-1.2,1.2h-25.1c-0.7,0-1.2-0.5-1.2-1.2v-21.7c0-0.7,0.5-1.2,1.2-1.2h25.1
					c0.7,0,1.2,0.6,1.2,1.2V637.1z"/>
				<path class="st10" d="M474.4,637.1c0,0.7-0.5,1.2-1.2,1.2h-25.1c-0.7,0-1.2-0.5-1.2-1.2v-21.7c0-0.7,0.6-1.2,1.2-1.2h25.1
					c0.7,0,1.2,0.6,1.2,1.2V637.1z"/>
				<path class="st10" d="M442.3,637.1c0,0.7-0.5,1.2-1.2,1.2H320.8c-0.7,0-1.2-0.5-1.2-1.2v-21.7c0-0.7,0.6-1.2,1.2-1.2h120.3
					c0.7,0,1.2,0.6,1.2,1.2V637.1z"/>
				<path class="st10" d="M289.6,608.5c0,0.7-0.5,1.2-1.2,1.2h-18.5c-0.7,0-1.2-0.5-1.2-1.2V590c0-0.7,0.5-1.2,1.2-1.2h18.5
					c0.7,0,1.2,0.5,1.2,1.2V608.5z"/>
				<path class="st10" d="M315,608.5c0,0.7-0.5,1.2-1.2,1.2h-18.5c-0.7,0-1.2-0.5-1.2-1.2V590c0-0.7,0.5-1.2,1.2-1.2h18.5
					c0.7,0,1.2,0.5,1.2,1.2V608.5z"/>
				<path class="st10" d="M340.5,608.5c0,0.7-0.5,1.2-1.2,1.2h-18.5c-0.7,0-1.2-0.5-1.2-1.2V590c0-0.7,0.6-1.2,1.2-1.2h18.5
					c0.7,0,1.2,0.5,1.2,1.2V608.5z"/>
				<path class="st10" d="M366,608.5c0,0.7-0.5,1.2-1.2,1.2h-18.5c-0.7,0-1.2-0.5-1.2-1.2V590c0-0.7,0.5-1.2,1.2-1.2h18.5
					c0.7,0,1.2,0.5,1.2,1.2V608.5z"/>
				<path class="st10" d="M391.4,608.5c0,0.7-0.5,1.2-1.2,1.2h-18.5c-0.7,0-1.2-0.5-1.2-1.2V590c0-0.7,0.5-1.2,1.2-1.2h18.5
					c0.7,0,1.2,0.5,1.2,1.2V608.5z"/>
				<path class="st10" d="M416.9,608.5c0,0.7-0.5,1.2-1.2,1.2h-18.5c-0.7,0-1.2-0.5-1.2-1.2V590c0-0.7,0.5-1.2,1.2-1.2h18.5
					c0.7,0,1.2,0.5,1.2,1.2V608.5z"/>
				<path class="st10" d="M442.3,608.5c0,0.7-0.5,1.2-1.2,1.2h-18.5c-0.7,0-1.2-0.5-1.2-1.2V590c0-0.7,0.5-1.2,1.2-1.2h18.5
					c0.7,0,1.2,0.5,1.2,1.2V608.5z"/>
				<path class="st10" d="M467.8,608.5c0,0.7-0.5,1.2-1.2,1.2h-18.5c-0.7,0-1.2-0.5-1.2-1.2V590c0-0.7,0.6-1.2,1.2-1.2h18.5
					c0.7,0,1.2,0.5,1.2,1.2V608.5z"/>
				<path class="st10" d="M493.2,608.5c0,0.7-0.5,1.2-1.2,1.2h-18.5c-0.7,0-1.2-0.5-1.2-1.2V590c0-0.7,0.5-1.2,1.2-1.2H492
					c0.7,0,1.2,0.5,1.2,1.2V608.5z"/>
				<path class="st10" d="M518.7,608.5c0,0.7-0.5,1.2-1.2,1.2H499c-0.7,0-1.2-0.5-1.2-1.2V590c0-0.7,0.5-1.2,1.2-1.2h18.5
					c0.7,0,1.2,0.5,1.2,1.2V608.5z"/>
				<path class="st10" d="M576,608.5c0,0.7-0.5,1.2-1.2,1.2h-50.4c-0.7,0-1.2-0.5-1.2-1.2V590c0-0.7,0.5-1.2,1.2-1.2h50.4
					c0.7,0,1.2,0.5,1.2,1.2V608.5z"/>
				<path class="st10" d="M302,583c0,0.7-0.5,1.2-1.2,1.2h-18.5c-0.7,0-1.2-0.5-1.2-1.2v-18.5c0-0.7,0.5-1.2,1.2-1.2h18.5
					c0.7,0,1.2,0.5,1.2,1.2V583z"/>
				<path class="st10" d="M327.5,583c0,0.7-0.5,1.2-1.2,1.2h-18.5c-0.7,0-1.2-0.5-1.2-1.2v-18.5c0-0.7,0.5-1.2,1.2-1.2h18.5
					c0.7,0,1.2,0.5,1.2,1.2V583z"/>
				<path class="st10" d="M353,583c0,0.7-0.5,1.2-1.2,1.2h-18.5c-0.7,0-1.2-0.5-1.2-1.2v-18.5c0-0.7,0.5-1.2,1.2-1.2h18.5
					c0.7,0,1.2,0.5,1.2,1.2V583z"/>
				<path class="st10" d="M378.4,583c0,0.7-0.5,1.2-1.2,1.2h-18.5c-0.7,0-1.2-0.5-1.2-1.2v-18.5c0-0.7,0.5-1.2,1.2-1.2h18.5
					c0.7,0,1.2,0.5,1.2,1.2V583z"/>
				<path class="st10" d="M403.9,583c0,0.7-0.5,1.2-1.2,1.2h-18.5c-0.7,0-1.2-0.5-1.2-1.2v-18.5c0-0.7,0.6-1.2,1.2-1.2h18.5
					c0.7,0,1.2,0.5,1.2,1.2V583z"/>
				<path class="st10" d="M429.3,583c0,0.7-0.5,1.2-1.2,1.2h-18.5c-0.7,0-1.2-0.5-1.2-1.2v-18.5c0-0.7,0.5-1.2,1.2-1.2h18.5
					c0.7,0,1.2,0.5,1.2,1.2V583z"/>
				<path class="st10" d="M454.8,583c0,0.7-0.5,1.2-1.2,1.2h-18.5c-0.7,0-1.2-0.5-1.2-1.2v-18.5c0-0.7,0.5-1.2,1.2-1.2h18.5
					c0.7,0,1.2,0.5,1.2,1.2V583z"/>
				<path class="st10" d="M480.2,583c0,0.7-0.5,1.2-1.2,1.2h-18.5c-0.7,0-1.2-0.5-1.2-1.2v-18.5c0-0.7,0.5-1.2,1.2-1.2H479
					c0.7,0,1.2,0.5,1.2,1.2V583z"/>
				<path class="st10" d="M505.7,583c0,0.7-0.5,1.2-1.2,1.2H486c-0.7,0-1.2-0.5-1.2-1.2v-18.5c0-0.7,0.5-1.2,1.2-1.2h18.5
					c0.7,0,1.2,0.5,1.2,1.2V583z"/>
				<path class="st10" d="M531.2,583c0,0.7-0.5,1.2-1.2,1.2h-18.5c-0.7,0-1.2-0.5-1.2-1.2v-18.5c0-0.7,0.5-1.2,1.2-1.2H530
					c0.7,0,1.2,0.5,1.2,1.2V583z"/>
				<path class="st10" d="M556.6,583c0,0.7-0.5,1.2-1.2,1.2h-18.5c-0.7,0-1.2-0.5-1.2-1.2v-18.5c0-0.7,0.5-1.2,1.2-1.2h18.5
					c0.7,0,1.2,0.5,1.2,1.2V583z"/>
				<path class="st10" d="M296,557.6c0,0.7-0.5,1.2-1.2,1.2h-18.5c-0.7,0-1.2-0.5-1.2-1.2v-18.5c0-0.7,0.5-1.2,1.2-1.2h18.5
					c0.7,0,1.2,0.5,1.2,1.2V557.6z"/>
				<path class="st10" d="M321.5,557.6c0,0.7-0.5,1.2-1.2,1.2h-18.5c-0.7,0-1.2-0.5-1.2-1.2v-18.5c0-0.7,0.5-1.2,1.2-1.2h18.5
					c0.7,0,1.2,0.5,1.2,1.2V557.6z"/>
				<path class="st10" d="M346.9,557.6c0,0.7-0.5,1.2-1.2,1.2h-18.5c-0.7,0-1.2-0.5-1.2-1.2v-18.5c0-0.7,0.5-1.2,1.2-1.2h18.5
					c0.7,0,1.2,0.5,1.2,1.2V557.6z"/>
				<path class="st10" d="M372.4,557.6c0,0.7-0.5,1.2-1.2,1.2h-18.5c-0.7,0-1.2-0.5-1.2-1.2v-18.5c0-0.7,0.5-1.2,1.2-1.2h18.5
					c0.7,0,1.2,0.5,1.2,1.2V557.6z"/>
				<path class="st10" d="M397.8,557.6c0,0.7-0.5,1.2-1.2,1.2h-18.5c-0.7,0-1.2-0.5-1.2-1.2v-18.5c0-0.7,0.5-1.2,1.2-1.2h18.5
					c0.7,0,1.2,0.5,1.2,1.2V557.6z"/>
				<path class="st10" d="M423.3,557.6c0,0.7-0.5,1.2-1.2,1.2h-18.5c-0.7,0-1.2-0.5-1.2-1.2v-18.5c0-0.7,0.5-1.2,1.2-1.2h18.5
					c0.7,0,1.2,0.5,1.2,1.2V557.6z"/>
				<path class="st10" d="M448.8,557.6c0,0.7-0.5,1.2-1.2,1.2h-18.5c-0.7,0-1.2-0.5-1.2-1.2v-18.5c0-0.7,0.5-1.2,1.2-1.2h18.5
					c0.7,0,1.2,0.5,1.2,1.2V557.6z"/>
				<path class="st10" d="M474.2,557.6c0,0.7-0.5,1.2-1.2,1.2h-18.5c-0.7,0-1.2-0.5-1.2-1.2v-18.5c0-0.7,0.5-1.2,1.2-1.2H473
					c0.7,0,1.2,0.5,1.2,1.2V557.6z"/>
				<path class="st10" d="M499.7,557.6c0,0.7-0.5,1.2-1.2,1.2H480c-0.7,0-1.2-0.5-1.2-1.2v-18.5c0-0.7,0.5-1.2,1.2-1.2h18.5
					c0.7,0,1.2,0.5,1.2,1.2V557.6z"/>
				<path class="st10" d="M525.1,557.6c0,0.7-0.5,1.2-1.2,1.2h-18.5c-0.7,0-1.2-0.5-1.2-1.2v-18.5c0-0.7,0.5-1.2,1.2-1.2h18.5
					c0.7,0,1.2,0.5,1.2,1.2V557.6z"/>
				<path class="st10" d="M550.6,557.6c0,0.7-0.5,1.2-1.2,1.2h-18.5c-0.7,0-1.2-0.5-1.2-1.2v-18.5c0-0.7,0.5-1.2,1.2-1.2h18.5
					c0.7,0,1.2,0.5,1.2,1.2V557.6z"/>
				<path class="st10" d="M245.1,557.6c0,0.7-0.5,1.2-1.2,1.2h-31.3c-0.7,0-1.2-0.5-1.2-1.2v-18.5c0-0.7,0.5-1.2,1.2-1.2h31.3
					c0.7,0,1.2,0.5,1.2,1.2V557.6z"/>
				<path class="st10" d="M576,532.1c0,0.7-0.5,1.2-1.2,1.2h-31.4c-0.7,0-1.2-0.5-1.2-1.2v-18.5c0-0.7,0.5-1.2,1.2-1.2h31.4
					c0.7,0,1.2,0.5,1.2,1.2V532.1z"/>
				<path class="st10" d="M251.1,583c0,0.7-0.5,1.2-1.2,1.2h-37.4c-0.7,0-1.2-0.5-1.2-1.2v-18.5c0-0.7,0.5-1.2,1.2-1.2h37.4
					c0.7,0,1.2,0.5,1.2,1.2V583L251.1,583z"/>
				<path class="st10" d="M238.7,608.5c0,0.7-0.5,1.2-1.2,1.2h-24.9c-0.7,0-1.2-0.5-1.2-1.2V590c0-0.7,0.5-1.2,1.2-1.2h24.9
					c0.7,0,1.2,0.5,1.2,1.2V608.5z"/>
				<path class="st10" d="M257.7,532.1c0,0.7-0.5,1.2-1.2,1.2H238c-0.7,0-1.2-0.5-1.2-1.2v-18.5c0-0.7,0.5-1.2,1.2-1.2h18.5
					c0.7,0,1.2,0.5,1.2,1.2V532.1z"/>
				<path class="st10" d="M283.2,532.1c0,0.7-0.5,1.2-1.2,1.2h-18.5c-0.7,0-1.2-0.5-1.2-1.2v-18.5c0-0.7,0.5-1.2,1.2-1.2H282
					c0.7,0,1.2,0.5,1.2,1.2V532.1z"/>
				<path class="st10" d="M308.6,532.1c0,0.7-0.6,1.2-1.2,1.2h-18.5c-0.7,0-1.2-0.5-1.2-1.2v-18.5c0-0.7,0.5-1.2,1.2-1.2h18.5
					c0.7,0,1.2,0.5,1.2,1.2V532.1z"/>
				<path class="st10" d="M334.1,532.1c0,0.7-0.5,1.2-1.2,1.2h-18.5c-0.7,0-1.2-0.5-1.2-1.2v-18.5c0-0.7,0.5-1.2,1.2-1.2h18.5
					c0.7,0,1.2,0.5,1.2,1.2V532.1z"/>
				<path class="st10" d="M359.5,532.1c0,0.7-0.5,1.2-1.2,1.2h-18.5c-0.7,0-1.2-0.5-1.2-1.2v-18.5c0-0.7,0.5-1.2,1.2-1.2h18.5
					c0.7,0,1.2,0.5,1.2,1.2V532.1z"/>
				<path class="st10" d="M385,532.1c0,0.7-0.5,1.2-1.2,1.2h-18.5c-0.7,0-1.2-0.5-1.2-1.2v-18.5c0-0.7,0.5-1.2,1.2-1.2h18.5
					c0.7,0,1.2,0.5,1.2,1.2V532.1z"/>
				<path class="st10" d="M410.4,532.1c0,0.7-0.5,1.2-1.2,1.2h-18.5c-0.7,0-1.2-0.5-1.2-1.2v-18.5c0-0.7,0.5-1.2,1.2-1.2h18.5
					c0.7,0,1.2,0.5,1.2,1.2V532.1z"/>
				<path class="st10" d="M435.9,532.1c0,0.7-0.5,1.2-1.2,1.2h-18.5c-0.7,0-1.2-0.5-1.2-1.2v-18.5c0-0.7,0.5-1.2,1.2-1.2h18.5
					c0.7,0,1.2,0.5,1.2,1.2V532.1z"/>
				<path class="st10" d="M461.3,532.1c0,0.7-0.5,1.2-1.2,1.2h-18.5c-0.7,0-1.2-0.5-1.2-1.2v-18.5c0-0.7,0.5-1.2,1.2-1.2h18.5
					c0.7,0,1.2,0.5,1.2,1.2V532.1z"/>
				<path class="st10" d="M486.8,532.1c0,0.7-0.5,1.2-1.2,1.2h-18.5c-0.7,0-1.2-0.5-1.2-1.2v-18.5c0-0.7,0.5-1.2,1.2-1.2h18.5
					c0.7,0,1.2,0.5,1.2,1.2V532.1z"/>
				<path class="st10" d="M512.3,532.1c0,0.7-0.5,1.2-1.2,1.2h-18.5c-0.7,0-1.2-0.5-1.2-1.2v-18.5c0-0.7,0.5-1.2,1.2-1.2h18.5
					c0.7,0,1.2,0.5,1.2,1.2V532.1z"/>
				<path class="st10" d="M537.7,532.1c0,0.7-0.5,1.2-1.2,1.2H518c-0.7,0-1.2-0.5-1.2-1.2v-18.5c0-0.7,0.5-1.2,1.2-1.2h18.5
					c0.7,0,1.2,0.5,1.2,1.2V532.1z"/>
				<g>
					<path class="st10" d="M529.9,627v10.2c0,0.3,0.1,0.6,0.3,0.9c0.2,0.2,0.6,0.4,0.9,0.4h18.5c0.3,0,0.6-0.1,0.9-0.4
						c0.2-0.2,0.4-0.5,0.4-0.9V627H529.9z"/>
					<path class="st10" d="M550.8,625.6v-10.2c0-0.3-0.1-0.6-0.4-0.8c-0.2-0.2-0.5-0.4-0.9-0.4H531c-0.3,0-0.6,0.1-0.9,0.4
						c-0.2,0.2-0.3,0.5-0.3,0.8v10.2H550.8z"/>
				</g>
				<path class="st10" d="M556.3,537.9c-0.3,0-0.6,0.1-0.8,0.4c-0.2,0.2-0.3,0.5-0.3,0.8v18.5c0,0.3,0.1,0.6,0.3,0.9
					c0.2,0.2,0.5,0.4,0.8,0.4h4.8V583c0,0.3,0.1,0.6,0.4,0.9c0.2,0.2,0.5,0.3,0.9,0.3h12.5c0.3,0,0.6-0.1,0.9-0.3
					c0.2-0.2,0.4-0.5,0.4-0.9v-43.9c0-0.3-0.1-0.6-0.4-0.8c-0.2-0.2-0.5-0.4-0.9-0.4H556.3L556.3,537.9z"/>
			</g>
		</g>
	</g>
	<g id="hand">
		<g>
			<path class="st9" d="M434,548c4.1-2.5,9.5-1.1,11.9,3l32.8,55.1c2.5,4.1,1.1,9.5-3,11.9l0,0c-4.1,2.5-9.5,1.1-11.9-3L431,560
				C428.5,555.8,429.9,550.5,434,548L434,548z"/>
			<path class="st9" d="M467.9,664.3c6.4,10.7,20.3,14.3,31,7.9l31.6-18.8c10.7-6.4,14.3-20.3,7.9-31l-18.8-31.6
				c-6.4-10.7-20.3-14.3-31-7.9L457,601.7c-10.8,6.4-14.3,20.3-7.9,31L467.9,664.3z"/>
			<path class="st9" d="M485.6,550.6c4.1-2.5,9.5-1.1,12,3l21,35.3c2.5,4.1,1.1,9.5-3,11.9l0,0c-4.1,2.5-9.5,1.1-11.9-3l-21-35.3
				C480.1,558.4,481.5,553.1,485.6,550.6L485.6,550.6z"/>
			<path class="st9" d="M458.5,546.8c4.1-2.5,9.5-1.1,12,3l32.8,55.1c2.5,4.1,1.1,9.5-3,12l0,0c-4.1,2.5-9.5,1.1-12-3l-32.8-55.1
				C453,554.7,454.4,549.3,458.5,546.8L458.5,546.8z"/>
			<path class="st9" d="M419.7,566.3c4.1-2.5,9.5-1.1,12,3l32.8,55.2c2.5,4.1,1.1,9.5-3,12l0,0c-4.1,2.5-9.5,1.1-12-3l-32.8-55.2
				C414.2,574.1,415.6,568.7,419.7,566.3L419.7,566.3z"/>
			<path class="st9" d="M570,693.1l-42.8-71.9c-4.3-7.3-13.8-9.7-21.1-5.3l-21.4,12.8c-7.3,4.3-9.7,13.8-5.3,21.1l42.8,71.9
				L570,693.1z"/>
			<path class="st9" d="M462.8,663.6l-17-28.6c-3.6-6.1-11.5-8.1-17.6-4.5l-3.7,2.2c-0.2,0.1-0.3,0.2-0.4,0.3l14.5,24.4L462.8,663.6
				z"/>
			<path class="st9" d="M469.9,653.9l-29.6-7.5c-2.8-0.7-5.6-0.4-8.1,0.6l10.9,18.4l39.6,10L469.9,653.9z"/>
		</g>
		<polygon class="st13" points="640,800 563.5,800 510.8,712.3 567.2,678.7 		"/>
		
			<rect x="500.7" y="668.9" transform="matrix(-0.8592 0.5117 -0.5117 -0.8592 1334.2964 994.367)" class="st10" width="59.2" height="23.8"/>
		
			<rect x="503.3" y="677.5" transform="matrix(-0.8592 0.5117 -0.5117 -0.8592 1352.8351 1012.3394)" class="st4" width="67.6" height="29.6"/>
	</g>
	<g id="hand_1_">
		<g>
			<path class="st9" d="M348.5,546c-4.1-2.5-9.5-1.1-11.9,3l-32.8,55.1c-2.5,4.1-1.1,9.5,3,11.9l0,0c4.1,2.5,9.5,1.1,11.9-3
				l32.8-55.1C354,553.9,352.7,548.5,348.5,546L348.5,546z"/>
			<path class="st9" d="M314.6,662.4c-6.4,10.7-20.3,14.3-31,7.9L252,651.4c-10.7-6.4-14.3-20.3-7.9-31l18.8-31.6
				c6.4-10.7,20.3-14.3,31-7.9l31.6,18.8c10.7,6.4,14.3,20.3,7.9,31L314.6,662.4z"/>
			<path class="st9" d="M297,548.6c-4.1-2.5-9.5-1.1-12,3L264,587c-2.5,4.1-1.1,9.5,3,11.9l0,0c4.1,2.5,9.5,1.1,11.9-3l21-35.3
				C302.5,556.4,301.1,551.1,297,548.6L297,548.6z"/>
			<path class="st9" d="M324,544.9c-4.1-2.5-9.5-1.1-12,3L279.2,603c-2.5,4.1-1.1,9.5,3,12l0,0c4.1,2.5,9.5,1.1,12-3l32.8-55.1
				C329.5,552.7,328.2,547.3,324,544.9L324,544.9z"/>
			<path class="st9" d="M362.8,564.3c-4.1-2.5-9.5-1.1-12,3L318,622.5c-2.5,4.1-1.1,9.5,3,12l0,0c4.1,2.5,9.5,1.1,12-3l32.8-55.2
				C368.3,572.1,367,566.8,362.8,564.3L362.8,564.3z"/>
			<path class="st9" d="M212.6,691.1l42.8-71.9c4.3-7.3,13.8-9.7,21.1-5.3l21.4,12.8c7.3,4.3,9.7,13.8,5.3,21.1l-42.8,71.9
				L212.6,691.1z"/>
			<path class="st9" d="M319.7,661.7l17-28.6c3.6-6.1,11.5-8.1,17.6-4.5l3.7,2.2c0.2,0.1,0.3,0.2,0.4,0.3L344,655.5L319.7,661.7z"/>
			<path class="st9" d="M312.6,651.9l29.6-7.5c2.8-0.7,5.6-0.4,8.1,0.6l-10.9,18.4l-39.6,10L312.6,651.9z"/>
		</g>
		<polygon class="st13" points="135.1,800 213.3,800 271.7,710.3 215.3,676.8 		"/>
		
			<rect x="222.7" y="666.9" transform="matrix(0.8592 0.5117 -0.5117 0.8592 382.8531 -33.5029)" class="st10" width="59.2" height="23.8"/>
		
			<rect x="211.7" y="675.5" transform="matrix(0.8592 0.5117 -0.5117 0.8592 387.8076 -28.3821)" class="st4" width="67.6" height="29.6"/>
	</g>
</g>
</svg>
